<mxfile modified="2022-08-31T13:07:27.898Z" host="app.diagrams.net" agent="5.0 (X11)" etag="4ArRMraWfjNQx7iKhvTF" version="20.0.2" type="github">
  <diagram id="WI9T0HZ2pTsCkuznbFz-" name="Page-1">
    <mxGraphModel dx="1422" dy="765" grid="1" gridSize="10" guides="1" tooltips="1" connect="1" arrows="1" fold="1" page="1" pageScale="1" pageWidth="1169" pageHeight="827" math="0" shadow="0">
      <root>
        <mxCell id="0" />
        <mxCell id="1" parent="0" />
        <mxCell id="A0k8HapBFfdafDrExHOt-13" style="edgeStyle=orthogonalEdgeStyle;rounded=0;orthogonalLoop=1;jettySize=auto;html=1;entryX=0;entryY=0.5;entryDx=0;entryDy=0;entryPerimeter=0;" edge="1" parent="1" source="RLjyjs_sm2IHfBNOWAbh-12" target="A0k8HapBFfdafDrExHOt-12">
          <mxGeometry relative="1" as="geometry" />
        </mxCell>
        <mxCell id="RLjyjs_sm2IHfBNOWAbh-12" value="&lt;div&gt;Original &lt;br&gt;&lt;/div&gt;&lt;div&gt;data storage&lt;/div&gt;" style="aspect=fixed;html=1;perimeter=none;align=center;shadow=0;dashed=0;image;fontSize=12;image=img/lib/mscae/DirectorySync.svg;labelBackgroundColor=#ffffff;fillColor=#4D9900;" parent="1" vertex="1">
          <mxGeometry x="120" y="39.99999999999994" width="50" height="50" as="geometry" />
        </mxCell>
        <mxCell id="A0k8HapBFfdafDrExHOt-27" style="edgeStyle=orthogonalEdgeStyle;rounded=0;orthogonalLoop=1;jettySize=auto;html=1;entryX=0;entryY=0.5;entryDx=0;entryDy=0;entryPerimeter=0;" edge="1" parent="1" source="A0k8HapBFfdafDrExHOt-1" target="A0k8HapBFfdafDrExHOt-16">
          <mxGeometry relative="1" as="geometry" />
        </mxCell>
        <mxCell id="A0k8HapBFfdafDrExHOt-1" value="&lt;div&gt;ARD generation&lt;/div&gt;" style="aspect=fixed;html=1;perimeter=none;align=center;shadow=0;dashed=0;image;fontSize=12;image=img/lib/mscae/BlobBlock.svg;labelBackgroundColor=#ffffff;fillColor=#4D9900;spacingTop=7;" vertex="1" parent="1">
          <mxGeometry x="360.0000000000001" y="43.749999999999886" width="50" height="42.5" as="geometry" />
        </mxCell>
        <mxCell id="A0k8HapBFfdafDrExHOt-31" style="edgeStyle=orthogonalEdgeStyle;rounded=0;orthogonalLoop=1;jettySize=auto;html=1;entryX=1;entryY=0.5;entryDx=0;entryDy=0;" edge="1" parent="1" source="A0k8HapBFfdafDrExHOt-6" target="A0k8HapBFfdafDrExHOt-25">
          <mxGeometry relative="1" as="geometry">
            <Array as="points">
              <mxPoint x="489" y="183" />
              <mxPoint x="489" y="371" />
            </Array>
          </mxGeometry>
        </mxCell>
        <mxCell id="A0k8HapBFfdafDrExHOt-6" value="Â Processing machine" style="editableCssRules=.*;shape=image;verticalLabelPosition=bottom;labelBackgroundColor=#ffffff;verticalAlign=top;aspect=fixed;imageAspect=0;image=data:image/svg+xml,PHN2ZyB4bWxucz0iaHR0cDovL3d3dy53My5vcmcvMjAwMC9zdmciIHhtbG5zOnY9Imh0dHBzOi8vdmVjdGEuaW8vbmFubyIgd2lkdGg9IjIwIiBoZWlnaHQ9IjIwIiB2aWV3Qm94PSIwIDAgMjAgMjAiPiYjeGE7CTxzdHlsZSB0eXBlPSJ0ZXh0L2NzcyI+JiN4YTsJLnN0MHtmaWxsOiM0Mjg1ZjQ7fSYjeGE7CTwvc3R5bGU+JiN4YTsJPHBhdGggY2xhc3M9InN0MCIgZD0iTTEzLjMzIDB2Mi4zOGgtMi4xNlYwSDguODN2Mi4zOEg2LjY3VjBINC4yOXYyLjM4YTIgMiAwIDAgMC0xLjkxIDEuOTFIMHYyLjM4aDIuMzh2Mi4xNEgwdjIuMzhoMi4zOHYyLjE0SDB2Mi4zOGgyLjM4YTIgMiAwIDAgMCAxLjkxIDEuOTFWMjBoMi4zOHYtMi4zOGgyLjE2VjIwaDIuMzR2LTIuMzhoMi4xNlYyMGgyLjM4di0yLjM4YTIgMiAwIDAgMCAxLjkxLTEuOTFIMjB2LTIuMzhoLTIuMzh2LTIuMTRIMjBWOC44MWgtMi4zOFY2LjY3SDIwVjQuMjloLTIuMzhhMiAyIDAgMCAwLTEuOTEtMS45MVYwem0xLjUzIDE1LjI0SDUuMTRhLjM4LjM4IDAgMCAxLS4zOC0uMzhWNS4xNGEuMzguMzggMCAwIDEgLjM4LS4zOGg5LjcyYS4zOC4zOCAwIDAgMSAuMzguMzh2OS43MmEuMzguMzggMCAwIDEtLjM4LjM4em0tMi4wNy02LjEybC0zLjUgNC44NnYtMy42M0g3LjIybDMuNjEtNC44MXYzLjU4eiIvPiYjeGE7PC9zdmc+;" vertex="1" parent="1">
          <mxGeometry x="360" y="155.5" width="55" height="55" as="geometry" />
        </mxCell>
        <mxCell id="A0k8HapBFfdafDrExHOt-29" style="edgeStyle=orthogonalEdgeStyle;rounded=0;orthogonalLoop=1;jettySize=auto;html=1;" edge="1" parent="1" source="A0k8HapBFfdafDrExHOt-7" target="A0k8HapBFfdafDrExHOt-26">
          <mxGeometry relative="1" as="geometry" />
        </mxCell>
        <mxCell id="A0k8HapBFfdafDrExHOt-7" value="&lt;div&gt;ARD collection&lt;/div&gt;" style="aspect=fixed;html=1;perimeter=none;align=center;shadow=0;dashed=0;image;fontSize=12;image=img/lib/mscae/Data_Factory.svg;labelBackgroundColor=#ffffff;fillColor=#4D9900;" vertex="1" parent="1">
          <mxGeometry x="120.00000000000011" y="158" width="50" height="50" as="geometry" />
        </mxCell>
        <mxCell id="A0k8HapBFfdafDrExHOt-14" style="edgeStyle=orthogonalEdgeStyle;rounded=0;orthogonalLoop=1;jettySize=auto;html=1;exitX=0.695;exitY=0.48;exitDx=0;exitDy=0;exitPerimeter=0;entryX=0;entryY=0.476;entryDx=0;entryDy=0;entryPerimeter=0;" edge="1" parent="1" source="A0k8HapBFfdafDrExHOt-12" target="A0k8HapBFfdafDrExHOt-1">
          <mxGeometry relative="1" as="geometry" />
        </mxCell>
        <mxCell id="A0k8HapBFfdafDrExHOt-12" value="Transfer" style="sketch=0;pointerEvents=1;shadow=0;dashed=0;html=1;strokeColor=none;labelPosition=center;verticalLabelPosition=bottom;verticalAlign=top;align=center;fillColor=#505050;shape=mxgraph.mscae.intune.data_migration_wizard" vertex="1" parent="1">
          <mxGeometry x="240" y="41" width="50" height="48" as="geometry" />
        </mxCell>
        <mxCell id="A0k8HapBFfdafDrExHOt-28" style="edgeStyle=orthogonalEdgeStyle;rounded=0;orthogonalLoop=1;jettySize=auto;html=1;entryX=0.42;entryY=0.02;entryDx=0;entryDy=0;entryPerimeter=0;" edge="1" parent="1" source="A0k8HapBFfdafDrExHOt-16" target="A0k8HapBFfdafDrExHOt-7">
          <mxGeometry relative="1" as="geometry">
            <Array as="points">
              <mxPoint x="550" y="65" />
              <mxPoint x="550" y="130" />
              <mxPoint x="141" y="130" />
            </Array>
          </mxGeometry>
        </mxCell>
        <mxCell id="A0k8HapBFfdafDrExHOt-16" value="Transfer" style="sketch=0;pointerEvents=1;shadow=0;dashed=0;html=1;strokeColor=none;labelPosition=center;verticalLabelPosition=bottom;verticalAlign=top;align=center;fillColor=#505050;shape=mxgraph.mscae.intune.data_migration_wizard;direction=east;" vertex="1" parent="1">
          <mxGeometry x="480" y="41" width="50" height="48" as="geometry" />
        </mxCell>
        <mxCell id="A0k8HapBFfdafDrExHOt-25" value="" style="swimlane;startSize=0;" vertex="1" parent="1">
          <mxGeometry x="190" y="255.5" width="279" height="230" as="geometry" />
        </mxCell>
        <mxCell id="A0k8HapBFfdafDrExHOt-23" value="GPU" style="sketch=0;html=1;verticalAlign=top;labelPosition=center;verticalLabelPosition=bottom;align=center;spacingTop=-6;fontSize=11;fontStyle=1;fontColor=#999999;shape=image;aspect=fixed;imageAspect=0;image=data:image/svg+xml,PHN2ZyB4bWxucz0iaHR0cDovL3d3dy53My5vcmcvMjAwMC9zdmciIHhtbG5zOnY9Imh0dHBzOi8vdmVjdGEuaW8vbmFubyIgd2lkdGg9IjIwIiBoZWlnaHQ9IjIwIiB2aWV3Qm94PSIwIDAgMjAgMjAiPiYjeGE7CTxzdHlsZSB0eXBlPSJ0ZXh0L2NzcyI+JiN4YTsJLnN0MHtmaWxsOiM0Mjg1ZjQ7fSYjeGE7CTwvc3R5bGU+JiN4YTsJPHBhdGggY2xhc3M9InN0MCIgZD0iTTEzLjMzIDB2Mi4zOGgtMi4xNlYwSDguODN2Mi4zOEg2LjY3VjBINC4yOXYyLjM4YTIgMiAwIDAgMC0xLjkxIDEuOTFIMHYyLjM4aDIuMzh2Mi4xNEgwdjIuMzhoMi4zOHYyLjE0SDB2Mi4zOGgyLjM4YTIgMiAwIDAgMCAxLjkxIDEuOTFWMjBoMi4zOHYtMi4zOGgyLjE2VjIwaDIuMzR2LTIuMzhoMi4xNlYyMGgyLjM4di0yLjM4YTIgMiAwIDAgMCAxLjkxLTEuOTFIMjB2LTIuMzhoLTIuMzh2LTIuMTRIMjBWOC44MWgtMi4zOFY2LjY3SDIwVjQuMjloLTIuMzhhMiAyIDAgMCAwLTEuOTEtMS45MVYwem0xLjUzIDE1LjI0SDUuMTRhLjM4LjM4IDAgMCAxLS4zOC0uMzhWNS4xNGEuMzguMzggMCAwIDEgLjM4LS4zOGg5LjcyYS4zOC4zOCAwIDAgMSAuMzguMzh2OS43MmEuMzguMzggMCAwIDEtLjM4LjM4em0tMi4wNy02LjEybC0zLjUgNC44NnYtMy42M0g3LjIybDMuNjEtNC44MXYzLjU4eiIvPiYjeGE7PC9zdmc+;" vertex="1" parent="A0k8HapBFfdafDrExHOt-25">
          <mxGeometry x="94.25" width="90.5" height="90.5" as="geometry" />
        </mxCell>
        <mxCell id="A0k8HapBFfdafDrExHOt-8" value="Machine&lt;br&gt;learning training" style="aspect=fixed;html=1;perimeter=none;align=center;shadow=0;dashed=0;image;fontSize=12;image=img/lib/mscae/Machine_Learning.svg;labelBackgroundColor=#ffffff;fillColor=#4D9900;" vertex="1" parent="A0k8HapBFfdafDrExHOt-25">
          <mxGeometry x="115" y="140.0000000000001" width="49" height="50" as="geometry" />
        </mxCell>
        <mxCell id="A0k8HapBFfdafDrExHOt-30" style="edgeStyle=orthogonalEdgeStyle;rounded=0;orthogonalLoop=1;jettySize=auto;html=1;entryX=0;entryY=0.5;entryDx=0;entryDy=0;" edge="1" parent="1" source="A0k8HapBFfdafDrExHOt-26" target="A0k8HapBFfdafDrExHOt-6">
          <mxGeometry relative="1" as="geometry" />
        </mxCell>
        <mxCell id="A0k8HapBFfdafDrExHOt-26" value="Transfer" style="sketch=0;pointerEvents=1;shadow=0;dashed=0;html=1;strokeColor=none;labelPosition=center;verticalLabelPosition=bottom;verticalAlign=top;align=center;fillColor=#505050;shape=mxgraph.mscae.intune.data_migration_wizard;direction=east;" vertex="1" parent="1">
          <mxGeometry x="239" y="159" width="50" height="48" as="geometry" />
        </mxCell>
        <mxCell id="A0k8HapBFfdafDrExHOt-49" style="edgeStyle=orthogonalEdgeStyle;rounded=0;orthogonalLoop=1;jettySize=auto;html=1;entryX=0;entryY=0.5;entryDx=0;entryDy=0;entryPerimeter=0;" edge="1" parent="1" source="A0k8HapBFfdafDrExHOt-50" target="A0k8HapBFfdafDrExHOt-58">
          <mxGeometry relative="1" as="geometry" />
        </mxCell>
        <mxCell id="A0k8HapBFfdafDrExHOt-50" value="&lt;div&gt;Original &lt;br&gt;&lt;/div&gt;&lt;div&gt;data storage&lt;/div&gt;" style="aspect=fixed;html=1;perimeter=none;align=center;shadow=0;dashed=0;image;fontSize=12;image=img/lib/mscae/DirectorySync.svg;labelBackgroundColor=#ffffff;fillColor=#4D9900;" vertex="1" parent="1">
          <mxGeometry x="640" y="43.74999999999994" width="50" height="50" as="geometry" />
        </mxCell>
        <mxCell id="A0k8HapBFfdafDrExHOt-67" style="edgeStyle=orthogonalEdgeStyle;rounded=0;orthogonalLoop=1;jettySize=auto;html=1;entryX=0.5;entryY=0;entryDx=0;entryDy=0;" edge="1" parent="1" source="A0k8HapBFfdafDrExHOt-54" target="A0k8HapBFfdafDrExHOt-62">
          <mxGeometry relative="1" as="geometry">
            <Array as="points">
              <mxPoint x="908" y="160" />
              <mxPoint x="785" y="160" />
            </Array>
          </mxGeometry>
        </mxCell>
        <mxCell id="A0k8HapBFfdafDrExHOt-54" value="Â Processing machine" style="editableCssRules=.*;shape=image;verticalLabelPosition=bottom;labelBackgroundColor=#ffffff;verticalAlign=top;aspect=fixed;imageAspect=0;image=data:image/svg+xml,PHN2ZyB4bWxucz0iaHR0cDovL3d3dy53My5vcmcvMjAwMC9zdmciIHhtbG5zOnY9Imh0dHBzOi8vdmVjdGEuaW8vbmFubyIgd2lkdGg9IjIwIiBoZWlnaHQ9IjIwIiB2aWV3Qm94PSIwIDAgMjAgMjAiPiYjeGE7CTxzdHlsZSB0eXBlPSJ0ZXh0L2NzcyI+JiN4YTsJLnN0MHtmaWxsOiM0Mjg1ZjQ7fSYjeGE7CTwvc3R5bGU+JiN4YTsJPHBhdGggY2xhc3M9InN0MCIgZD0iTTEzLjMzIDB2Mi4zOGgtMi4xNlYwSDguODN2Mi4zOEg2LjY3VjBINC4yOXYyLjM4YTIgMiAwIDAgMC0xLjkxIDEuOTFIMHYyLjM4aDIuMzh2Mi4xNEgwdjIuMzhoMi4zOHYyLjE0SDB2Mi4zOGgyLjM4YTIgMiAwIDAgMCAxLjkxIDEuOTFWMjBoMi4zOHYtMi4zOGgyLjE2VjIwaDIuMzR2LTIuMzhoMi4xNlYyMGgyLjM4di0yLjM4YTIgMiAwIDAgMCAxLjkxLTEuOTFIMjB2LTIuMzhoLTIuMzh2LTIuMTRIMjBWOC44MWgtMi4zOFY2LjY3SDIwVjQuMjloLTIuMzhhMiAyIDAgMCAwLTEuOTEtMS45MVYwem0xLjUzIDE1LjI0SDUuMTRhLjM4LjM4IDAgMCAxLS4zOC0uMzhWNS4xNGEuMzguMzggMCAwIDEgLjM4LS4zOGg5LjcyYS4zOC4zOCAwIDAgMSAuMzguMzh2OS43MmEuMzguMzggMCAwIDEtLjM4LjM4em0tMi4wNy02LjEybC0zLjUgNC44NnYtMy42M0g3LjIybDMuNjEtNC44MXYzLjU4eiIvPiYjeGE7PC9zdmc+;" vertex="1" parent="1">
          <mxGeometry x="880" y="41.25" width="55" height="55" as="geometry" />
        </mxCell>
        <mxCell id="A0k8HapBFfdafDrExHOt-57" style="edgeStyle=orthogonalEdgeStyle;rounded=0;orthogonalLoop=1;jettySize=auto;html=1;exitX=0.695;exitY=0.48;exitDx=0;exitDy=0;exitPerimeter=0;entryX=0;entryY=0.476;entryDx=0;entryDy=0;entryPerimeter=0;" edge="1" parent="1" source="A0k8HapBFfdafDrExHOt-58">
          <mxGeometry relative="1" as="geometry">
            <mxPoint x="880" y="67.7299999999999" as="targetPoint" />
          </mxGeometry>
        </mxCell>
        <mxCell id="A0k8HapBFfdafDrExHOt-58" value="Transfer" style="sketch=0;pointerEvents=1;shadow=0;dashed=0;html=1;strokeColor=none;labelPosition=center;verticalLabelPosition=bottom;verticalAlign=top;align=center;fillColor=#505050;shape=mxgraph.mscae.intune.data_migration_wizard" vertex="1" parent="1">
          <mxGeometry x="760" y="44.75" width="50" height="48" as="geometry" />
        </mxCell>
        <mxCell id="A0k8HapBFfdafDrExHOt-61" value="" style="swimlane;startSize=0;" vertex="1" parent="1">
          <mxGeometry x="645.5" y="190" width="279" height="230" as="geometry" />
        </mxCell>
        <mxCell id="A0k8HapBFfdafDrExHOt-62" value="GPU" style="sketch=0;html=1;verticalAlign=top;labelPosition=center;verticalLabelPosition=bottom;align=center;spacingTop=-6;fontSize=11;fontStyle=1;fontColor=#999999;shape=image;aspect=fixed;imageAspect=0;image=data:image/svg+xml,PHN2ZyB4bWxucz0iaHR0cDovL3d3dy53My5vcmcvMjAwMC9zdmciIHhtbG5zOnY9Imh0dHBzOi8vdmVjdGEuaW8vbmFubyIgd2lkdGg9IjIwIiBoZWlnaHQ9IjIwIiB2aWV3Qm94PSIwIDAgMjAgMjAiPiYjeGE7CTxzdHlsZSB0eXBlPSJ0ZXh0L2NzcyI+JiN4YTsJLnN0MHtmaWxsOiM0Mjg1ZjQ7fSYjeGE7CTwvc3R5bGU+JiN4YTsJPHBhdGggY2xhc3M9InN0MCIgZD0iTTEzLjMzIDB2Mi4zOGgtMi4xNlYwSDguODN2Mi4zOEg2LjY3VjBINC4yOXYyLjM4YTIgMiAwIDAgMC0xLjkxIDEuOTFIMHYyLjM4aDIuMzh2Mi4xNEgwdjIuMzhoMi4zOHYyLjE0SDB2Mi4zOGgyLjM4YTIgMiAwIDAgMCAxLjkxIDEuOTFWMjBoMi4zOHYtMi4zOGgyLjE2VjIwaDIuMzR2LTIuMzhoMi4xNlYyMGgyLjM4di0yLjM4YTIgMiAwIDAgMCAxLjkxLTEuOTFIMjB2LTIuMzhoLTIuMzh2LTIuMTRIMjBWOC44MWgtMi4zOFY2LjY3SDIwVjQuMjloLTIuMzhhMiAyIDAgMCAwLTEuOTEtMS45MVYwem0xLjUzIDE1LjI0SDUuMTRhLjM4LjM4IDAgMCAxLS4zOC0uMzhWNS4xNGEuMzguMzggMCAwIDEgLjM4LS4zOGg5LjcyYS4zOC4zOCAwIDAgMSAuMzguMzh2OS43MmEuMzguMzggMCAwIDEtLjM4LjM4em0tMi4wNy02LjEybC0zLjUgNC44NnYtMy42M0g3LjIybDMuNjEtNC44MXYzLjU4eiIvPiYjeGE7PC9zdmc+;" vertex="1" parent="A0k8HapBFfdafDrExHOt-61">
          <mxGeometry x="94.25" width="90.5" height="90.5" as="geometry" />
        </mxCell>
        <mxCell id="A0k8HapBFfdafDrExHOt-63" value="Machine&lt;br&gt;learning training" style="aspect=fixed;html=1;perimeter=none;align=center;shadow=0;dashed=0;image;fontSize=12;image=img/lib/mscae/Machine_Learning.svg;labelBackgroundColor=#ffffff;fillColor=#4D9900;" vertex="1" parent="A0k8HapBFfdafDrExHOt-61">
          <mxGeometry x="180" y="140.0000000000001" width="49" height="50" as="geometry" />
        </mxCell>
        <mxCell id="A0k8HapBFfdafDrExHOt-69" style="edgeStyle=orthogonalEdgeStyle;rounded=0;orthogonalLoop=1;jettySize=auto;html=1;entryX=-0.112;entryY=0.42;entryDx=0;entryDy=0;entryPerimeter=0;" edge="1" parent="A0k8HapBFfdafDrExHOt-61" source="A0k8HapBFfdafDrExHOt-66" target="A0k8HapBFfdafDrExHOt-63">
          <mxGeometry relative="1" as="geometry" />
        </mxCell>
        <mxCell id="A0k8HapBFfdafDrExHOt-66" value="&lt;div&gt;ARD generation&lt;/div&gt;" style="aspect=fixed;html=1;perimeter=none;align=center;shadow=0;dashed=0;image;fontSize=12;image=img/lib/mscae/BlobBlock.svg;labelBackgroundColor=#ffffff;fillColor=#4D9900;spacingTop=7;" vertex="1" parent="A0k8HapBFfdafDrExHOt-61">
          <mxGeometry x="50.000000000000114" y="139.9999999999999" width="50" height="42.5" as="geometry" />
        </mxCell>
      </root>
    </mxGraphModel>
  </diagram>
</mxfile>
